#!OML:ASF X:\für Bonn\!DataBase\2005_08_10_Bjorn_Final\c3d\bjorn.ASF
:FULLY-SPECIFIED
:DEGREES
113
root 0.205303 10.8337 3.58107 -176.084 0.577013 -181.04
lowerback 23.387 -2.04401 4.9539
upperback 12.5777 1.50156 0.455578
thorax 0.831912 2.27204 -2.62853
lowerneck -21.2437 -0.827099 0.463762
upperneck -0.50835 -1.85942 -3.02581
head 3.10847 -1.43633 -1.19301
rclavicle 7.95139e-016 1.43125e-014
rhumerus 74.8385 4.67993 -63.5396
rradius 12.6947
rwrist 36.3929
rhand -18.9009 11.4988
rfingers 7.12502
rthumb 7.40079 -18.3518
lclavicle 7.95139e-016 1.43125e-014
lhumerus 76.4826 -12.3083 78.4842
lradius 6.78341
lwrist -53.5414
lhand -27.3495 -6.03034
lfingers 7.12502
lthumb -0.757601 23.9481
rfemur -82.4974 -35.2991 13.1237
rtibia 133.731
rfoot -33.8976 29.7338
rtoes -32.4854
lfemur -81.2643 17.109 -19.8153
ltibia 136.119
lfoot -29.7686 -12.2814
ltoes -37.1979
114
root 0.198621 11.0458 3.5907 -175.63 0.715098 -181.064
lowerback 23.0705 -1.93981 4.96386
upperback 12.4492 1.54506 0.438996
thorax 0.847736 2.26145 -2.65654
lowerneck -21.0256 -0.82796 0.484671
upperneck -0.391799 -1.83359 -3.05243
head 3.11381 -1.41206 -1.20029
rclavicle 2.14687e-014 4.21423e-014
rhumerus 75.1107 4.75421 -63.1961
rradius 12.469
rwrist 35.5864
rhand -19.0486 11.5892
rfingers 7.12502
rthumb 7.2582 -18.2664
lclavicle 2.14687e-014 4.21423e-014
lhumerus 76.5654 -12.3392 78.4376
lradius 6.81837
lwrist -53.4548
lhand -27.504 -5.94895
lfingers 7.12502
lthumb -0.906829 24.0289
rfemur -81.6694 -32.3255 13.3266
rtibia 132.063
rfoot -33.5686 27.9426
rtoes -32.3466
lfemur -80.5635 14.9708 -19.8289
ltibia 134.474
lfoot -29.3582 -10.949
ltoes -37.5738
115
root 0.19096 11.2627 3.59967 -175.154 0.832464 -181.09
lowerback 22.7255 -1.84884 4.96826
upperback 12.3005 1.56101 0.431805
thorax 0.853266 2.23267 -2.66515
lowerneck -20.77 -0.825311 0.45464
upperneck -0.293622 -1.79355 -3.0374
head 3.10878 -1.37825 -1.18476
rclavicle 3.97569e-015 1.27222e-014
rhumerus 75.3614 4.86303 -62.8233
rradius 12.3486
rwrist 34.7229
rhand -19.0283 11.6507
rfingers 7.12502
rthumb 7.27788 -18.2042
lclavicle 3.97569e-015 1.27222e-014
lhumerus 76.6277 -12.3243 78.3999
lradius 6.84307
lwrist -53.2636
lhand -27.6198 -5.95915
lfingers 7.12502
lthumb -1.01869 24.0182
rfemur -80.8755 -29.7001 13.5278
rtibia 130.345
rfoot -33.3425 26.2551
rtoes -32.2981
lfemur -79.8708 13.0189 -19.8539
ltibia 132.773
lfoot -28.9563 -9.72886
ltoes -37.7571
116
root 0.184371 11.4807 3.60664 -174.679 0.969704 -181.096
lowerback 22.3631 -1.74242 4.99991
upperback 12.1647 1.60589 0.418341
thorax 0.885881 2.2227 -2.70046
lowerneck -20.6158 -0.835645 0.443425
upperneck -0.150464 -1.77581 -3.03768
head 3.13145 -1.35839 -1.18049
rclavicle 7.95139e-016 -1.51076e-014
rhumerus 75.5835 4.87444 -62.6302
rradius 12.3079
rwrist 34.1055
rhand -18.9422 11.7077
rfingers 7.12502
rthumb 7.36097 -18.1443
lclavicle 7.95139e-016 -1.51076e-014
lhumerus 76.7363 -12.321 78.3458
lradius 6.87145
lwrist -53.0331
lhand -27.6348 -6.0691
lfingers 7.12502
lthumb -1.03319 23.9081
rfemur -80.0639 -27.3411 13.7186
rtibia 128.576
rfoot -33.1904 24.7633
rtoes -32.2306
lfemur -79.1773 11.3555 -19.8521
ltibia 131.043
lfoot -28.5125 -8.77648
ltoes -37.5463
